<?xml version="1.0" encoding="UTF-8" standalone="no"?>
<svg
   xmlns:dc="http://purl.org/dc/elements/1.1/"
   xmlns:cc="http://creativecommons.org/ns#"
   xmlns:rdf="http://www.w3.org/1999/02/22-rdf-syntax-ns#"
   xmlns:svg="http://www.w3.org/2000/svg"
   xmlns="http://www.w3.org/2000/svg"
   xmlns:xlink="http://www.w3.org/1999/xlink"
   xmlns:sodipodi="http://sodipodi.sourceforge.net/DTD/sodipodi-0.dtd"
   xmlns:inkscape="http://www.inkscape.org/namespaces/inkscape"
   width="210mm"
   height="297mm"
   viewBox="0 0 210 297"
   version="1.1"
   id="svg8"
   sodipodi:docname="IconSource.svg"
   inkscape:version="1.0.1 (3bc2e813f5, 2020-09-07)">
  <defs
     id="defs2">
    <linearGradient
       inkscape:collect="always"
       id="linearGradient882">
      <stop
         style="stop-color:#3700b3;stop-opacity:1"
         offset="0"
         id="stop878" />
      <stop
         style="stop-color:#00ffb4;stop-opacity:1"
         offset="1"
         id="stop880" />
    </linearGradient>
    <inkscape:path-effect
       effect="fillet_chamfer"
       id="path-effect851"
       is_visible="true"
       lpeversion="1"
       satellites_param="F,0,1,1,0,3.1790947,0,1 @ F,0,0,1,0,5.0270833,0,1 @ F,0,0,1,0,5.0270833,0,1 @ F,0,0,1,0,5.0270833,0,1 @ F,0,0,1,0,5.0270833,0,1 @ F,0,0,1,0,5.0270833,0,1 @ F,0,0,1,0,5.0270833,0,1 @ F,0,0,1,0,5.0270833,0,1 @ F,0,0,1,0,5.0270833,0,1 @ F,0,0,1,0,5.0270833,0,1 @ F,0,0,1,0,5.0270833,0,1 @ F,0,0,1,0,5.0270833,0,1 @ F,0,0,1,0,5.0270833,0,1 @ F,0,0,1,0,5.0270833,0,1 @ F,0,0,1,0,5.0270833,0,1 @ F,0,0,1,0,5.0270833,0,1 @ F,0,0,1,0,5.0270833,0,1 @ F,0,0,1,0,5.0270833,0,1 @ F,0,0,1,0,5.0270833,0,1 @ F,0,0,1,0,5.0270833,0,1 @ F,0,0,1,0,5.0270833,0,1 @ F,0,0,1,0,5.2833691,0,1"
       unit="px"
       method="auto"
       mode="F"
       radius="19"
       chamfer_steps="1"
       flexible="false"
       use_knot_distance="true"
       apply_no_radius="true"
       apply_with_radius="true"
       only_selected="false"
       hide_knots="false" />
    <inkscape:path-effect
       effect="fillet_chamfer"
       id="path-effect845"
       is_visible="true"
       lpeversion="1"
       satellites_param="F,0,1,1,0,3.1790947,0,1 @ F,0,0,1,0,5.0270833,0,1 @ F,0,0,1,0,5.0270833,0,1 @ F,0,0,1,0,5.0270833,0,1 @ F,0,0,1,0,5.0270833,0,1 @ F,0,0,1,0,5.0270833,0,1 @ F,0,0,1,0,5.0270833,0,1 @ F,0,0,1,0,5.0270833,0,1 @ F,0,0,1,0,5.0270833,0,1 @ F,0,0,1,0,5.0270833,0,1 @ F,0,0,1,0,5.0270833,0,1 @ F,0,0,1,0,5.0270833,0,1 @ F,0,0,1,0,5.0270833,0,1 @ F,0,0,1,0,5.0270833,0,1 @ F,0,0,1,0,5.0270833,0,1 @ F,0,0,1,0,5.0270833,0,1 @ F,0,0,1,0,5.0270833,0,1 @ F,0,0,1,0,5.0270833,0,1 @ F,0,0,1,0,5.0270833,0,1 @ F,0,0,1,0,5.0270833,0,1 @ F,0,0,1,0,5.0270833,0,1 @ F,0,0,1,0,5.2833691,0,1"
       unit="px"
       method="auto"
       mode="F"
       radius="19"
       chamfer_steps="1"
       flexible="false"
       use_knot_distance="true"
       apply_no_radius="true"
       apply_with_radius="true"
       only_selected="false"
       hide_knots="false" />
    <filter
       inkscape:collect="always"
       style="color-interpolation-filters:sRGB"
       id="filter841"
       x="-8.9234038e-07"
       width="1.0000018"
       y="-1.8314411e-06"
       height="1.0000037">
      <feGaussianBlur
         inkscape:collect="always"
         stdDeviation="2.3352675e-05"
         id="feGaussianBlur843" />
    </filter>
    <linearGradient
       inkscape:collect="always"
       xlink:href="#linearGradient882"
       id="linearGradient884"
       x1="244.55162"
       y1="200.18488"
       x2="169.18163"
       y2="118.13313"
       gradientUnits="userSpaceOnUse"
       gradientTransform="translate(-91.848214)" />
    <filter
       inkscape:collect="always"
       style="color-interpolation-filters:sRGB"
       id="filter2620"
       x="-0.013107577"
       width="1.0262152"
       y="-0.013107576"
       height="1.0262152">
      <feGaussianBlur
         inkscape:collect="always"
         stdDeviation="0.52256638"
         id="feGaussianBlur2622" />
    </filter>
    <clipPath
       clipPathUnits="userSpaceOnUse"
       id="clipPath2628">
      <path
         id="path2630"
         style="display:inline;fill:#ffffff;fill-opacity:1;stroke:none;stroke-width:10.0481;stroke-linecap:round;stroke-linejoin:round;stroke-miterlimit:4;stroke-dasharray:none;stroke-opacity:1;paint-order:normal;filter:url(#filter841)"
         d="m 656.875,316.20312 c -4.55343,-0.0274 -8.78919,2.88305 -10.24023,7.45118 l -12.9336,40.7207 -4.85156,15.26953 c -5.46463,17.2046 0.36478,35.19571 13.42187,45.95508 l -4.18945,13.19141 c -5.69506,-4.97818 -10.73935,-11.58095 -13.7793,-16.8125 l -2.625,-4.51954 c -5.14583,-8.85564 -16.78295,-19.2691 -26.49804,-23.12109 a 38.385793,38.385793 0 0 0 20.99219,-34.21875 38.385793,38.385793 0 0 0 -38.38672,-38.38476 38.385793,38.385793 0 0 0 -38.38477,38.38476 38.385793,38.385793 0 0 0 9.95703,25.79102 c -4.71999,0.30834 -9.53085,1.03189 -14.46094,2.30664 -10.13986,2.62182 -23.54441,12.95095 -30.73046,20.59765 l -13.37305,14.23047 a 68.471373,68.471373 0 0 0 -17.0293,32.41602 l -5.51758,25.51953 a 14.238807,14.238807 0 0 0 6.46875,16.23437 c 9.87032,4.91955 20.37712,0.33051 23.1875,-10.32617 0.81956,-3.10775 1.66887,-6.40465 2.4961,-9.74023 2.52559,-10.18364 9.19565,-25.41398 16.19726,-33.22656 36.95894,-41.2396 -4.4084,54.07142 -8.91601,108.375 -0.8657,10.42937 -4.32447,26.01596 -10.15821,34.73828 L 466.625,633.23047 c -5.83374,8.72232 -2.87342,19.83877 7.40039,21.90039 12.99723,2.60814 14.92728,-4.34194 27.60938,-17.55664 7.26058,-7.56552 17.94558,-20.34443 22.77929,-29.6582 l 3.20313,-6.17383 a 131.14881,131.14881 0 0 0 12.35937,-35.51758 l 7.4336,-38.45313 c 1.99185,-10.30265 10.36569,-13.48977 18.64648,-7.04492 5.03996,3.92247 10.64227,8.31738 15.62305,12.3086 8.16691,6.54444 15.52616,20.85728 17.21289,31.20703 2.48171,15.2276 6.0371,36.59154 8.5918,51.89843 1.72739,10.35024 6.08843,22.55887 11.22265,24.12696 9.90565,3.02525 20.53795,-0.52053 22.40039,-3.5293 5.52235,-8.92135 7.20803,-24.71753 4.56055,-34.86719 -4.60502,-17.65413 -9.38791,-36.38513 -13.61524,-51.77343 -2.77957,-10.1181 -11.29223,-24.26433 -18.60546,-31.78907 -2.52662,-2.59963 -5.16165,-5.33186 -7.65625,-7.96093 -7.20053,-7.58858 -13.03496,-22.51085 -14.29297,-32.51368 -1.3078,-10.39846 -3.77174,-21.0487 -4.08203,-23.99609 -1.09811,-10.43365 11.67335,-23.92941 16.24609,-15.30664 1.50319,2.83449 2.64927,7.04791 6.33008,12.63477 3.84727,5.83952 11.15919,12.75491 18.49023,17.84765 l -6.51562,20.51758 c -2.67852,8.43356 1.98636,17.44059 10.41992,20.11914 8.43337,2.67855 17.4404,-1.98666 20.11914,-10.41992 l 6.9082,-21.74805 c 3.29328,-0.50495 6.5815,-1.48094 9.83985,-2.99414 9.45853,-4.39264 10.8163,-19.16539 2.40625,-25.38086 -0.94838,-0.70089 -1.84252,-1.25284 -2.69727,-1.6875 l 3.84961,-12.12109 c 16.87257,-1.25292 32.01385,-12.58052 37.47852,-29.78516 l 4.85156,-15.27148 12.93359,-40.72071 c 1.7856,-5.62232 -1.32503,-11.62625 -6.94726,-13.4121 -5.62228,-1.78597 -11.62816,1.323 -13.41407,6.94531 l -12.93359,40.7207 c -0.89291,2.81114 -3.89586,4.36741 -6.70703,3.47461 -2.81118,-0.89303 -4.36557,-3.89589 -3.47266,-6.70703 l 12.9336,-40.7207 c 1.7856,-5.62232 -1.32308,-11.62821 -6.94532,-13.41407 -5.62227,-1.78596 -11.62816,1.32496 -13.41406,6.94727 l -12.93555,40.7207 c -0.89291,2.81118 -3.8939,4.36557 -6.70507,3.47266 -2.8111,-0.89299 -4.36749,-3.89586 -3.47461,-6.70703 l 12.93359,-40.72071 c 1.78568,-5.6223 -1.32315,-11.62822 -6.94531,-13.41406 -1.05418,-0.33487 -2.12304,-0.49758 -3.17383,-0.50391 z"
         transform="matrix(0.22541571,0,0,0.22541574,66.039029,37.593765)" />
    </clipPath>
    <linearGradient
       inkscape:collect="always"
       xlink:href="#linearGradient882"
       id="linearGradient2671"
       x1="155.4633"
       y1="149.4776"
       x2="48.023216"
       y2="64.620087"
       gradientUnits="userSpaceOnUse"
       gradientTransform="matrix(1.025641,0,0,1.025641,-2.336894,-2.4259847)" />
  </defs>
  <sodipodi:namedview
     id="base"
     pagecolor="#ffffff"
     bordercolor="#666666"
     borderopacity="1.0"
     inkscape:pageopacity="0.0"
     inkscape:pageshadow="2"
     inkscape:zoom="0.98994949"
     inkscape:cx="279.05787"
     inkscape:cy="555.8302"
     inkscape:document-units="mm"
     inkscape:current-layer="layer1"
     inkscape:document-rotation="0"
     showgrid="false"
     inkscape:window-width="2560"
     inkscape:window-height="1370"
     inkscape:window-x="2560"
     inkscape:window-y="0"
     inkscape:window-maximized="1" />
  <metadata
     id="metadata5">
    <rdf:RDF>
      <cc:Work
         rdf:about="">
        <dc:format>image/svg+xml</dc:format>
        <dc:type
           rdf:resource="http://purl.org/dc/dcmitype/StillImage" />
      </cc:Work>
    </rdf:RDF>
  </metadata>
  <g
     inkscape:label="Layer 1"
     inkscape:groupmode="layer"
     id="layer1">
    <rect
       style="opacity:0.999;fill:url(#linearGradient2671);fill-opacity:1;stroke:none;stroke-width:2.26501;stroke-linecap:round;stroke-linejoin:round;stroke-miterlimit:4;stroke-dasharray:none;stroke-opacity:1;paint-order:normal"
       id="rect2634"
       width="149.67093"
       height="149.67093"
       x="16.303438"
       y="19.777945"
       ry="0"
       inkscape:export-xdpi="86.88929"
       inkscape:export-ydpi="86.88929" />
    <circle
       style="display:none;opacity:0.999;fill:#000000;fill-opacity:0.663793;stroke-width:0.499999;stroke-linejoin:round;paint-order:markers stroke fill"
       id="path833"
       cx="78.978142"
       cy="95.281586"
       r="10.156241" />
    <path
       style="display:none;fill:#000000;fill-opacity:0.663793;stroke:none;stroke-width:2.265;stroke-linecap:round;stroke-linejoin:round;stroke-miterlimit:4;stroke-dasharray:none;stroke-opacity:1;paint-order:normal;filter:url(#filter841)"
       d="m 49.995533,127.25936 1.460258,-6.75181 a 18.116371,18.116371 117.71249 0 1 4.505303,-8.57679 l 3.538247,-3.76506 c 1.901313,-2.02319 5.448373,-4.75629 8.131215,-5.44998 5.684693,-1.46986 10.790874,-0.27857 15.760093,1.54274 2.606507,0.95534 5.80545,3.79355 7.200352,6.19408 l 0.69491,1.1959 c 1.394902,2.40053 4.381148,5.9019 7.103396,6.33615 2.338983,0.37311 3.417223,-0.64307 5.426383,0.8418 2.22516,1.64451 1.86588,5.55321 -0.63669,6.71543 -2.65952,1.2351 -5.394781,1.1348 -8.009757,0.10655 -2.573901,-1.01209 -6.147277,-3.96628 -7.669884,-6.27735 -0.973879,-1.47819 -1.277297,-2.59292 -1.675008,-3.34288 -1.209876,-2.28143 -4.588977,1.2893 -4.298439,4.04986 0.08207,0.77983 0.734252,3.59789 1.080269,6.34915 0.33285,2.64658 1.876784,6.5945 3.781923,8.60232 0.660032,0.6956 1.356743,1.41854 2.025241,2.10636 1.934966,1.99092 4.187301,5.73382 4.922728,8.4109 1.118486,4.07149 2.384335,9.02715 3.602739,13.69814 0.700481,2.68543 0.254443,6.86493 -1.206665,9.22536 -0.492773,0.79608 -3.306056,1.73415 -5.926934,0.93372 -1.358432,-0.41489 -2.512413,-3.64487 -2.969462,-6.38337 -0.675925,-4.04995 -1.616288,-9.70235 -2.272903,-13.73132 -0.446282,-2.73837 -2.393567,-6.52537 -4.554401,-8.25692 -1.317826,-1.05601 -2.800046,-2.21904 -4.133529,-3.25686 -2.190969,-1.7052 -4.406639,-0.86186 -4.933648,1.86405 l -1.966942,10.17384 a 34.699814,34.699814 109.18547 0 1 -3.269936,9.39765 l -0.84762,1.63322 c -1.278928,2.46427 -4.10591,5.8458 -6.026942,7.8475 -3.355477,3.4964 -3.866118,5.33524 -7.304959,4.64517 -2.718282,-0.54547 -3.501437,-3.48707 -1.957921,-5.79485 l 8.174815,-12.22253 c 1.543516,-2.30778 2.458489,-6.43162 2.687544,-9.19106 1.192637,-14.36782 12.137927,-39.58527 2.359209,-28.67396 -1.852514,2.06708 -3.617675,6.09641 -4.285903,8.79083 -0.218875,0.88254 -0.44354,1.75485 -0.660387,2.57711 -0.743579,2.81958 -3.523488,4.03389 -6.135005,2.73226 a 3.767351,3.767351 68.2728 0 1 -1.71169,-4.29535 z"
       id="path839"
       inkscape:path-effect="#path-effect845"
       inkscape:original-d="m 49.323507,130.36661 3.194955,-14.77254 10.423511,-11.09168 c 9.535404,-4.805873 17.326491,-1.58789 25.123335,1.60361 l 5.746296,9.88898 c 7.877686,5.1119 7.114566,-1.96703 13.363486,6.5481 -5.26078,5.62958 -11.282235,4.58767 -16.303446,0.53454 -7.291066,-6.28226 -2.534901,-8.96854 -9.621707,-8.01809 0,0 0.133634,5.61266 0.534538,6.41447 0.400904,0.80181 1.336348,9.08716 1.336348,9.75534 0,0.66817 8.819894,9.48807 8.819894,9.48807 1.71123,5.50106 4.187226,15.59072 6.280839,23.38608 0,0 -2.806335,5.21175 -3.474509,5.74629 -0.668174,0.53454 -6.815373,-0.26726 -7.082642,-1.87088 -0.26727,-1.60361 -3.875408,-23.11882 -3.875408,-23.65336 0,-0.53454 -11.893494,-9.6217 -11.893494,-9.6217 l -3.875408,20.04522 -5.479026,10.55714 c -8.869418,7.11104 -5.851671,10.49804 -15.768902,6.41447 l 13.764381,-20.57975 c -2.336536,-13.0645 15.910174,-51.605154 -0.935444,-29.80055 -0.935443,4.94448 -3.165311,12.57116 -3.165311,12.57116 z"
       sodipodi:nodetypes="ccccccccssccssscccccccc" />
    <g
       id="g2639"
       transform="translate(-13.723255,-52.518456)"
       inkscape:export-xdpi="86.88929"
       inkscape:export-ydpi="86.88929">
      <path
         id="path938"
         style="display:inline;fill:#ffffff;fill-opacity:1;stroke:none;stroke-width:10.0481;stroke-linecap:round;stroke-linejoin:round;stroke-miterlimit:4;stroke-dasharray:none;stroke-opacity:1;paint-order:normal;filter:url(#filter841)"
         d="m 656.875,316.20312 c -4.55343,-0.0274 -8.78919,2.88305 -10.24023,7.45118 l -12.9336,40.7207 -4.85156,15.26953 c -5.46463,17.2046 0.36478,35.19571 13.42187,45.95508 l -4.18945,13.19141 c -5.69506,-4.97818 -10.73935,-11.58095 -13.7793,-16.8125 l -2.625,-4.51954 c -5.14583,-8.85564 -16.78295,-19.2691 -26.49804,-23.12109 a 38.385793,38.385793 0 0 0 20.99219,-34.21875 38.385793,38.385793 0 0 0 -38.38672,-38.38476 38.385793,38.385793 0 0 0 -38.38477,38.38476 38.385793,38.385793 0 0 0 9.95703,25.79102 c -4.71999,0.30834 -9.53085,1.03189 -14.46094,2.30664 -10.13986,2.62182 -23.54441,12.95095 -30.73046,20.59765 l -13.37305,14.23047 a 68.471373,68.471373 0 0 0 -17.0293,32.41602 l -5.51758,25.51953 a 14.238807,14.238807 0 0 0 6.46875,16.23437 c 9.87032,4.91955 20.37712,0.33051 23.1875,-10.32617 0.81956,-3.10775 1.66887,-6.40465 2.4961,-9.74023 2.52559,-10.18364 9.19565,-25.41398 16.19726,-33.22656 36.95894,-41.2396 -4.4084,54.07142 -8.91601,108.375 -0.8657,10.42937 -4.32447,26.01596 -10.15821,34.73828 L 466.625,633.23047 c -5.83374,8.72232 -2.87342,19.83877 7.40039,21.90039 12.99723,2.60814 14.92728,-4.34194 27.60938,-17.55664 7.26058,-7.56552 17.94558,-20.34443 22.77929,-29.6582 l 3.20313,-6.17383 a 131.14881,131.14881 0 0 0 12.35937,-35.51758 l 7.4336,-38.45313 c 1.99185,-10.30265 10.36569,-13.48977 18.64648,-7.04492 5.03996,3.92247 10.64227,8.31738 15.62305,12.3086 8.16691,6.54444 15.52616,20.85728 17.21289,31.20703 2.48171,15.2276 6.0371,36.59154 8.5918,51.89843 1.72739,10.35024 6.08843,22.55887 11.22265,24.12696 9.90565,3.02525 20.53795,-0.52053 22.40039,-3.5293 5.52235,-8.92135 7.20803,-24.71753 4.56055,-34.86719 -4.60502,-17.65413 -9.38791,-36.38513 -13.61524,-51.77343 -2.77957,-10.1181 -11.29223,-24.26433 -18.60546,-31.78907 -2.52662,-2.59963 -5.16165,-5.33186 -7.65625,-7.96093 -7.20053,-7.58858 -13.03496,-22.51085 -14.29297,-32.51368 -1.3078,-10.39846 -3.77174,-21.0487 -4.08203,-23.99609 -1.09811,-10.43365 11.67335,-23.92941 16.24609,-15.30664 1.50319,2.83449 2.64927,7.04791 6.33008,12.63477 3.84727,5.83952 11.15919,12.75491 18.49023,17.84765 l -6.51562,20.51758 c -2.67852,8.43356 1.98636,17.44059 10.41992,20.11914 8.43337,2.67855 17.4404,-1.98666 20.11914,-10.41992 l 6.9082,-21.74805 c 3.29328,-0.50495 6.5815,-1.48094 9.83985,-2.99414 9.45853,-4.39264 10.8163,-19.16539 2.40625,-25.38086 -0.94838,-0.70089 -1.84252,-1.25284 -2.69727,-1.6875 l 3.84961,-12.12109 c 16.87257,-1.25292 32.01385,-12.58052 37.47852,-29.78516 l 4.85156,-15.27148 12.93359,-40.72071 c 1.7856,-5.62232 -1.32503,-11.62625 -6.94726,-13.4121 -5.62228,-1.78597 -11.62816,1.323 -13.41407,6.94531 l -12.93359,40.7207 c -0.89291,2.81114 -3.89586,4.36741 -6.70703,3.47461 -2.81118,-0.89303 -4.36557,-3.89589 -3.47266,-6.70703 l 12.9336,-40.7207 c 1.7856,-5.62232 -1.32308,-11.62821 -6.94532,-13.41407 -5.62227,-1.78596 -11.62816,1.32496 -13.41406,6.94727 l -12.93555,40.7207 c -0.89291,2.81118 -3.8939,4.36557 -6.70507,3.47266 -2.8111,-0.89299 -4.36749,-3.89586 -3.47461,-6.70703 l 12.93359,-40.72071 c 1.78568,-5.6223 -1.32315,-11.62822 -6.94531,-13.41406 -1.05418,-0.33487 -2.12304,-0.49758 -3.17383,-0.50391 z"
         transform="matrix(0.22541571,0,0,0.22541574,-25.809185,37.593766)" />
      <path
         id="rect906"
         style="opacity:0.999;fill:#0b0b0b;fill-opacity:0.359195;stroke:none;stroke-width:2.265;stroke-linecap:round;stroke-linejoin:round;stroke-miterlimit:4;stroke-dasharray:none;stroke-opacity:1;paint-order:normal;filter:url(#filter2620)"
         d="m 155.41155,98.879295 c -2.07293,0 -3.74137,1.668445 -3.74137,3.741375 v 88.19927 c 0,2.07294 1.66844,3.74137 3.74137,3.74137 h 88.19927 c 2.07294,0 3.74137,-1.66843 3.74137,-3.74137 v -88.19927 c 0,-2.07293 -1.66843,-3.741375 -3.74137,-3.741375 z m 59.22636,11.049975 c 0.23687,10e-4 0.47809,0.0382 0.71572,0.11369 1.26732,0.40256 1.9678,1.75623 1.56528,3.02359 l -2.91558,9.17928 c -0.20127,0.63368 0.14974,1.31024 0.78341,1.51154 0.63368,0.20127 1.31026,-0.1487 1.51154,-0.78238 l 2.91558,-9.17929 c 0.40257,-1.26735 1.75676,-1.96838 3.02411,-1.56579 1.26734,0.40256 1.96778,1.75623 1.56527,3.02359 l -2.91506,9.17928 c -0.20128,0.63367 0.14869,1.31023 0.78238,1.51154 0.63368,0.20125 1.31077,-0.14923 1.51205,-0.7829 l 2.91558,-9.17929 c 0.40258,-1.26736 1.75624,-1.96838 3.02359,-1.56579 1.26734,0.40255 1.96882,1.75623 1.56632,3.02358 l -2.91559,9.17877 -1.09347,3.44269 c -1.23182,3.87819 -4.64524,6.43137 -8.44858,6.7138 l -0.86765,2.73265 c 0.19267,0.098 0.39445,0.22234 0.60823,0.38034 1.89576,1.40106 1.5895,4.73092 -0.5426,5.72109 -0.73448,0.3411 -1.4756,0.56108 -2.21795,0.6749 l -1.55753,4.90254 c -0.60383,1.90099 -2.63411,2.95248 -4.53512,2.3487 -1.90106,-0.60379 -2.95248,-2.63407 -2.3487,-4.53513 l 1.46865,-4.62504 c -1.65253,-1.14798 -3.30047,-2.70669 -4.16771,-4.02301 -0.82971,-1.25937 -1.08846,-2.20946 -1.4273,-2.8484 -1.03077,-1.94371 -3.90932,1.09852 -3.66179,3.45043 0.0699,0.66439 0.62504,3.065 0.91984,5.40897 0.28357,2.2548 1.59891,5.61869 3.22202,7.32927 0.56233,0.59263 1.15646,1.20872 1.726,1.79472 1.64851,1.6962 3.5675,4.88468 4.19405,7.16546 0.95291,3.46876 2.03103,7.69108 3.06907,11.6706 0.59678,2.2879 0.21646,5.84846 -1.02836,7.85947 -0.41983,0.67823 -2.81642,1.47776 -5.04931,0.79582 -1.15733,-0.35347 -2.14018,-3.10532 -2.52956,-5.43843 -0.57587,-3.45041 -1.37741,-8.26649 -1.93683,-11.69903 -0.38021,-2.33299 -2.03892,-5.55897 -3.87987,-7.03419 -1.12274,-0.89969 -2.38566,-1.89084 -3.52175,-2.77503 -1.86662,-1.45277 -3.75436,-0.73384 -4.20336,1.58854 l -1.67586,8.66768 a 29.563001,29.563007 0 0 1 -2.78588,8.00623 l -0.72192,1.39165 c -1.08959,2.09947 -3.49844,4.97999 -5.13509,6.68538 -2.85874,2.9788 -3.29361,4.5453 -6.22339,3.95738 -2.31588,-0.46472 -2.98313,-2.9705 -1.66811,-4.93665 l 6.96443,-10.4128 c 1.31502,-1.96615 2.09464,-5.47958 2.28978,-7.83053 1.01609,-12.24088 10.34082,-33.72557 2.0097,-24.42951 -1.57828,1.76107 -3.08164,5.19391 -3.65094,7.48946 -0.18647,0.75189 -0.37802,1.4952 -0.56276,2.19573 -0.6335,2.40219 -3.00163,3.43697 -5.22655,2.32803 a 3.2096509,3.2096511 0 0 1 -1.45831,-3.65973 l 1.24385,-5.75262 a 15.434523,15.434525 0 0 1 3.83853,-7.30705 l 3.0148,-3.20755 c 1.61985,-1.72369 4.64102,-4.05213 6.92671,-4.64313 1.11132,-0.28735 2.19579,-0.45036 3.25975,-0.51987 a 8.6527607,8.6527618 0 0 1 -2.24431,-5.8136 8.6527607,8.6527618 0 0 1 8.6527,-8.6527 8.6527607,8.6527618 0 0 1 8.6527,8.6527 8.6527607,8.6527618 0 0 1 -4.73201,7.71323 c 2.18993,0.8683 4.81333,3.21588 5.97328,5.21209 l 0.5917,1.01854 c 0.68525,1.17927 1.82251,2.66779 3.10627,3.78995 l 0.94412,-2.97347 c -2.94327,-2.42533 -4.25746,-6.48086 -3.02565,-10.35905 l 1.09399,-3.44217 2.91507,-9.17929 c 0.32708,-1.02972 1.28197,-1.68566 2.30838,-1.67948 z"
         clip-path="url(#clipPath2628)"
         transform="translate(-91.848214)" />
    </g>
  </g>
</svg>
